HIERARCHY
ROOT Hips
{
	OFFSET 0.00000 0.00000 0.00000
	CHANNELS 6 Xposition Yposition Zposition Zrotation Yrotation Xrotation 
	JOINT LHipJoint
	{
		OFFSET 0 0 0
		CHANNELS 3 Zrotation Yrotation Xrotation
		JOINT LeftUpLeg
		{
			OFFSET 1.52977 -1.71332 0.88991
			CHANNELS 3 Zrotation Yrotation Xrotation
			JOINT LeftLeg
			{
				OFFSET 2.23949 -6.15296 0.00000
				CHANNELS 3 Zrotation Yrotation Xrotation
				JOINT LeftFoot
				{
					OFFSET 2.68396 -7.37412 0.00000
					CHANNELS 3 Zrotation Yrotation Xrotation
					JOINT LeftToeBase
					{
						OFFSET 0.20538 -0.56428 2.52710
						CHANNELS 3 Zrotation Yrotation Xrotation
						End Site
						{
							OFFSET 0.00000 -0.00000 1.29919
						}
					}
				}
			}
		}
	}
	JOINT RHipJoint
	{
		OFFSET 0 0 0
		CHANNELS 3 Zrotation Yrotation Xrotation
		JOINT RightUpLeg
		{
			OFFSET -1.45689 -1.71333 0.88991
			CHANNELS 3 Zrotation Yrotation Xrotation
			JOINT RightLeg
			{
				OFFSET -2.36700 -6.50329 0.00000
				CHANNELS 3 Zrotation Yrotation Xrotation
				JOINT RightFoot
				{
					OFFSET -2.69814 -7.41308 0.00000
					CHANNELS 3 Zrotation Yrotation Xrotation
					JOINT RightToeBase
					{
						OFFSET -0.18734 -0.51471 2.37479
						CHANNELS 3 Zrotation Yrotation Xrotation
						End Site
						{
							OFFSET -0.00000 -0.00000 1.22113
						}
					}
				}
			}
		}
	}
	JOINT LowerBack
	{
		OFFSET 0 0 0
		CHANNELS 3 Zrotation Yrotation Xrotation
		JOINT Spine
		{
			OFFSET 0.04294 2.14638 -0.31163
			CHANNELS 3 Zrotation Yrotation Xrotation
			JOINT Spine1
			{
				OFFSET -0.00400 2.17216 0.01486
				CHANNELS 3 Zrotation Yrotation Xrotation
				JOINT Neck
				{
					OFFSET 0 0 0
					CHANNELS 3 Zrotation Yrotation Xrotation
					JOINT Neck1
					{
						OFFSET 0.03869 1.76598 0.14916
						CHANNELS 3 Zrotation Yrotation Xrotation
						JOINT Head
						{
							OFFSET -0.00760 1.75513 -0.18948
							CHANNELS 3 Zrotation Yrotation Xrotation
							End Site
							{
								OFFSET -0.00601 1.82444 -0.08310
							}
						}
					}
				}
				JOINT LeftShoulder
				{
					OFFSET 0 0 0
					CHANNELS 3 Zrotation Yrotation Xrotation
					JOINT LeftArm
					{
						OFFSET 3.73696 0.92058 0.01733
						CHANNELS 3 Zrotation Yrotation Xrotation
						JOINT LeftForeArm
						{
							OFFSET 5.22771 -0.00000 0.00000
							CHANNELS 3 Zrotation Yrotation Xrotation
							JOINT LeftHand
							{
								OFFSET 3.45251 -0.00000 0.00000
								CHANNELS 3 Zrotation Yrotation Xrotation
								JOINT LeftFingerBase
								{
									OFFSET 0 0 0
									CHANNELS 3 Zrotation Yrotation Xrotation
									JOINT LeftHandIndex1
									{
										OFFSET 0.55212 -0.00000 0.00000
										CHANNELS 3 Zrotation Yrotation Xrotation
										End Site
										{
											OFFSET 0.44513 -0.00000 0.00000
										}
									}
								}
								JOINT LThumb
								{
									OFFSET 0 0 0
									CHANNELS 3 Zrotation Yrotation Xrotation
									End Site
									{
										OFFSET 0.45193 -0.00000 0.45193
									}
								}
							}
						}
					}
				}
				JOINT RightShoulder
				{
					OFFSET 0 0 0
					CHANNELS 3 Zrotation Yrotation Xrotation
					JOINT RightArm
					{
						OFFSET -3.63819 0.83094 -0.13694
						CHANNELS 3 Zrotation Yrotation Xrotation
						JOINT RightForeArm
						{
							OFFSET -5.23980 -0.00000 -0.00000
							CHANNELS 3 Zrotation Yrotation Xrotation
							JOINT RightHand
							{
								OFFSET -3.48042 -0.00000 -0.00000
								CHANNELS 3 Zrotation Yrotation Xrotation
								JOINT RightFingerBase
								{
									OFFSET 0 0 0
									CHANNELS 3 Zrotation Yrotation Xrotation
									JOINT RightHandIndex1
									{
										OFFSET -0.61871 -0.00000 0.00000
										CHANNELS 3 Zrotation Yrotation Xrotation
										End Site
										{
											OFFSET -0.49882 -0.00000 0.00000
										}
									}
								}
								JOINT RThumb
								{
									OFFSET 0 0 0
									CHANNELS 3 Zrotation Yrotation Xrotation
									End Site
									{
										OFFSET -0.50644 -0.00000 0.50644
									}
								}
							}
						}
					}
				}
			}
		}
	}
}
MOTION
Frames: 10
Frame Time: .0083333
9.2843 17.4992 -7.2008 620.4880 -89.0282 -600.0600 0.0000 0.0000 0.0000 -16.2914 -8.2497 -50.1489 2.1021 9.0755 26.0318 0.9894 1.7754 18.2873 0.0256 -1.0321 -2.8372 0.0000 0.0000 0.0000 20.7654 14.3145 -37.4438 -5.5159 -13.9422 43.0064 -0.0501 -2.3778 -5.7882 -0.0033 0.3723 -1.0230 5.0311 -1.7996 24.5557 -0.2016 -1.5962 6.4392 -2.6084 -1.0104 -6.6480 3.8805 1.5711 5.4076 -0.8549 2.2039 -17.8339 -1.0548 0.7464 -6.2418 0.0000 0.0000 0.0000 -84.9781 0.5358 32.1734 17.6758 -27.7400 -4.3973 -0.0000 0.0000 -22.2850 20.4114 8.8665 3.2827 -7.1250 0.0000 -0.0000 -5.6586 39.3698 0.7880 0.0000 0.0000 0.0000 90.5524 2.2447 27.5961 -18.0517 28.2233 -4.5737 0.0000 0.0000 0.6618 -22.8470 -8.2677 3.4671 7.1250 -0.0000 -0.0000 3.4830 -38.9182 0.5226
9.3973 17.5017 -7.2086 624.3080 -89.0754 -603.6950 0.0000 0.0000 0.0000 -16.1060 -8.4243 -50.4203 2.3921 9.6390 27.8153 0.7569 0.8324 16.1776 0.0627 -1.6156 -4.4445 0.0000 0.0000 0.0000 20.6491 14.4783 -38.1215 -5.5293 -13.9561 43.0619 -0.0395 -2.6795 -5.6837 -0.0016 0.2614 -0.7182 5.0745 -1.7960 24.4840 -0.1882 -1.5781 6.3997 -2.6248 -1.0010 -6.6545 3.8704 1.5471 5.3958 -0.8567 2.1673 -17.8868 -1.0515 0.7276 -6.2575 -0.0000 -0.0000 0.0000 -85.0047 0.5693 32.1970 17.6561 -27.7146 -4.3881 -0.0000 0.0000 -22.2701 20.3356 8.8572 3.2660 -7.1250 0.0000 -0.0000 -5.7228 39.3540 0.7993 -0.0000 -0.0000 0.0000 90.4763 2.2218 27.5474 -18.0219 28.1853 -4.5596 0.0000 0.0000 0.7209 -22.8127 -8.2919 3.4714 7.1250 -0.0000 -0.0000 3.5151 -38.9417 0.5254
9.5090 17.5078 -7.2152 626.6000 -89.1234 -605.7770 0.0000 0.0000 0.0000 -15.9484 -8.5760 -50.7055 2.7149 10.2185 29.6874 0.5606 0.2276 14.0712 0.1133 -2.1704 -5.9769 0.0000 0.0000 0.0000 20.5032 14.6745 -38.7750 -5.5254 -13.9521 43.0458 -0.0270 -3.0008 -5.5404 -0.0005 0.1507 -0.4140 5.1017 -1.7865 24.3971 -0.1819 -1.5567 6.3494 -2.6408 -0.9897 -6.6648 3.8628 1.5254 5.3884 -0.8650 2.1329 -17.9520 -1.0509 0.7098 -6.2777 -0.0000 0.0000 0.0000 -85.0277 0.6171 32.2198 17.6416 -27.6959 -4.3814 -0.0000 0.0000 -22.2929 20.2430 8.8666 3.2533 -7.1250 0.0000 -0.0000 -5.8040 39.3568 0.8103 -0.0000 0.0000 0.0000 90.3978 2.1934 27.5208 -17.9896 28.1439 -4.5444 0.0000 0.0000 0.7596 -22.7497 -8.3028 3.4652 7.1250 -0.0000 -0.0000 3.5707 -38.9487 0.5331
9.6201 17.5166 -7.2209 627.2120 -89.1996 -606.1730 0.0000 0.0000 0.0000 -15.8454 -8.7115 -50.9631 3.0644 10.7986 31.6038 0.4053 -0.0186 12.0351 0.1688 -2.6465 -7.2961 0.0000 0.0000 0.0000 20.3023 14.8950 -39.3975 -5.5082 -13.9342 42.9746 -0.0131 -3.3343 -5.3630 -0.0000 0.0358 -0.0983 5.0884 -1.7721 24.3155 -0.1874 -1.5386 6.2917 -2.6455 -0.9798 -6.6861 3.8589 1.5068 5.3822 -0.8767 2.1027 -18.0191 -1.0523 0.6941 -6.2985 0.0000 0.0000 0.0000 -85.0461 0.6772 32.2344 17.6273 -27.6773 -4.3747 -0.0000 0.0000 -22.3423 20.1356 8.8871 3.2420 -7.1250 0.0000 -0.0000 -5.8996 39.3699 0.8218 0.0000 0.0000 0.0000 90.3245 2.1593 27.4954 -17.9584 28.1039 -4.5296 0.0000 0.0000 0.7887 -22.6721 -8.3010 3.4514 7.1250 -0.0000 -0.0000 3.6374 -38.9409 0.5438
9.7308 17.5278 -7.2256 626.6440 -89.3143 -605.4000 0.0000 0.0000 0.0000 -15.8076 -8.8368 -51.1548 3.4343 11.3670 33.5279 0.2890 0.0473 10.1385 0.2189 -3.0118 -8.3117 0.0000 0.0000 0.0000 20.0429 15.1161 -39.9827 -5.4818 -13.9066 42.8646 0.0017 -3.6681 -5.1589 -0.0001 -0.0705 0.1937 5.0365 -1.7588 24.2558 -0.2047 -1.5308 6.2317 -2.6375 -0.9748 -6.7214 3.8557 1.4920 5.3699 -0.8905 2.0771 -18.0818 -1.0547 0.6808 -6.3167 -0.0000 -0.0000 0.0000 -85.0607 0.7437 32.2419 17.6099 -27.6548 -4.3667 -0.0000 0.0000 -22.4053 20.0201 8.9198 3.2335 -7.1250 0.0000 -0.0000 -6.0039 39.3955 0.8327 -0.0000 -0.0000 0.0000 90.2536 2.1242 27.4729 -17.9256 28.0619 -4.5142 0.0000 0.0000 0.8027 -22.5898 -8.2999 3.4370 7.1250 -0.0000 -0.0000 3.7084 -38.9335 0.5551
9.8413 17.5407 -7.2296 625.1970 -89.4679 -603.7630 0.0000 0.0000 0.0000 -15.8309 -8.9600 -51.2705 3.8190 11.9156 35.4340 0.2050 0.3300 8.4393 0.2581 -3.2685 -9.0272 0.0000 0.0000 0.0000 19.7268 15.3324 -40.5364 -5.4491 -13.8723 42.7284 0.0170 -4.0010 -4.9329 -0.0007 -0.1683 0.4625 4.9484 -1.7500 24.2181 -0.2316 -1.5373 6.1720 -2.6147 -0.9765 -6.7684 3.8498 1.4819 5.3482 -0.9016 2.0576 -18.1356 -1.0561 0.6705 -6.3304 0.0000 0.0000 0.0000 -85.0723 0.8124 32.2354 17.5868 -27.6249 -4.3560 -0.0000 0.0000 -22.4622 19.8978 8.9630 3.2275 -7.1250 0.0000 -0.0000 -6.1157 39.4312 0.8430 0.0000 0.0000 0.0000 90.1908 2.0911 27.4401 -17.8924 28.0192 -4.4986 0.0000 0.0000 0.8168 -22.5181 -8.2987 3.4244 7.1250 -0.0000 -0.0000 3.7701 -38.9268 0.5650
9.9517 17.5545 -7.2329 623.1940 -89.6520 -601.5870 0.0000 0.0000 0.0000 -15.8990 -9.0887 -51.3035 4.2137 12.4395 37.3050 0.1452 0.7353 6.9723 0.2842 -3.4286 -9.4742 0.0000 0.0000 0.0000 19.3685 15.5325 -41.0634 -5.4120 -13.8333 42.5736 0.0323 -4.3292 -4.6937 -0.0018 -0.2732 0.7506 4.8416 -1.7500 24.2049 -0.2658 -1.5589 6.1116 -2.5842 -0.9856 -6.8298 3.8447 1.4747 5.3191 -0.9118 2.0420 -18.1811 -1.0574 0.6623 -6.3400 0.0000 0.0000 0.0000 -85.0773 0.8869 32.2222 17.5620 -27.5927 -4.3445 -0.0000 0.0000 -22.5022 19.7767 9.0082 3.2223 -7.1250 0.0000 -0.0000 -6.2268 39.4693 0.8525 0.0000 0.0000 0.0000 90.1378 2.0588 27.3890 -17.8593 27.9766 -4.4830 0.0000 0.0000 0.8400 -22.4514 -8.2978 3.4128 7.1250 -0.0000 -0.0000 3.8275 -38.9207 0.5742
10.0620 17.5688 -7.2357 621.0910 -89.8520 -599.3240 0.0000 0.0000 0.0000 -15.9878 -9.2248 -51.2578 4.6144 12.9360 39.1293 0.1026 1.1679 5.7510 0.3005 -3.5249 -9.7436 0.0000 0.0000 0.0000 18.9889 15.7144 -41.5701 -5.3708 -13.7896 42.4010 0.0479 -4.6571 -4.4429 -0.0035 -0.3794 1.0424 4.7309 -1.7580 24.2006 -0.3012 -1.5922 6.0571 -2.5491 -1.0002 -6.8899 3.8334 1.4686 5.2810 -0.9153 2.0278 -18.2280 -1.0556 0.6544 -6.3486 0.0000 0.0000 0.0000 -85.0757 0.9515 32.2072 17.5313 -27.5529 -4.3303 -0.0000 0.0000 -22.5187 19.6632 9.0471 3.2160 -7.1250 0.0000 -0.0000 -6.3305 39.5012 0.8619 0.0000 0.0000 0.0000 90.0941 2.0376 27.3166 -17.8286 27.9371 -4.4687 0.0000 0.0000 0.8721 -22.4032 -8.3044 3.4074 7.1250 -0.0000 -0.0000 3.8698 -38.9242 0.5803
10.1721 17.5832 -7.2383 620.5960 -90.0665 -598.6780 0.0000 0.0000 0.0000 -16.0911 -9.3686 -51.1365 5.0170 13.4030 40.8963 0.0722 1.5449 4.7717 0.3094 -3.5763 -9.8875 0.0000 0.0000 0.0000 18.5936 15.8726 -42.0591 -5.3245 -13.7401 42.2063 0.0633 -4.9827 -4.1900 -0.0061 -0.5060 1.3904 4.6197 -1.7728 24.2007 -0.3391 -1.6345 6.0056 -2.5139 -1.0190 -6.9496 3.8259 1.4615 5.2416 -0.9173 2.0125 -18.2799 -1.0539 0.6455 -6.3587 0.0000 0.0000 0.0000 -85.0636 1.0101 32.1920 17.4961 -27.5071 -4.3140 -0.0000 0.0000 -22.5045 19.5611 9.0785 3.2089 -7.1250 0.0000 -0.0000 -6.4232 39.5261 0.8707 0.0000 0.0000 0.0000 90.0594 2.0216 27.2363 -17.7996 27.8998 -4.4551 0.0000 0.0000 0.8975 -22.3704 -8.3176 3.4072 7.1250 -0.0000 -0.0000 3.8996 -38.9359 0.5836
10.2818 17.5981 -7.2407 617.3060 -90.2822 -595.2460 0.0000 0.0000 0.0000 -16.1922 -9.5138 -50.9427 5.4172 13.8388 42.5954 0.0513 1.8164 4.0320 0.3135 -3.5995 -9.9527 0.0000 0.0000 0.0000 18.2034 16.0039 -42.5244 -5.2705 -13.6821 41.9787 0.0783 -5.3032 -3.9433 -0.0097 -0.6352 1.7456 4.5217 -1.7930 24.1971 -0.3765 -1.6815 5.9590 -2.4843 -1.0400 -7.0025 3.8263 1.4512 5.2098 -0.9194 1.9937 -18.3464 -1.0534 0.6338 -6.3747 -0.0000 0.0000 0.0000 -85.0394 1.0576 32.1804 17.4552 -27.4539 -4.2951 -0.0000 0.0000 -22.4667 19.4748 9.1020 3.2018 -7.1250 0.0000 -0.0000 -6.5013 39.5439 0.8785 -0.0000 0.0000 0.0000 90.0370 2.0059 27.1394 -17.7800 27.8746 -4.4459 0.0000 0.0000 0.9264 -22.3621 -8.3306 3.4111 7.1250 -0.0000 -0.0000 3.9082 -38.9492 0.5836
